<?xml version="1.0" encoding="UTF-8" standalone="no"?>
<svg
   version="1.0"
   width="512"
   height="235.84561"
   viewBox="0 0 384 176.8842"
   id="svg3"
   sodipodi:docname="Logo azul transparente.svg"
   inkscape:version="1.4 (e7c3feb1, 2024-10-09)"
   xmlns:inkscape="http://www.inkscape.org/namespaces/inkscape"
   xmlns:sodipodi="http://sodipodi.sourceforge.net/DTD/sodipodi-0.dtd"
   xmlns="http://www.w3.org/2000/svg"
   xmlns:svg="http://www.w3.org/2000/svg">
  <defs
     id="defs3" />
  <sodipodi:namedview
     id="namedview3"
     pagecolor="#ffffff"
     bordercolor="#000000"
     borderopacity="0.25"
     inkscape:showpageshadow="true"
     inkscape:pageopacity="0.0"
     inkscape:pagecheckerboard="true"
     inkscape:deskcolor="#d1d1d1"
     inkscape:zoom="1.25"
     inkscape:cx="256"
     inkscape:cy="118"
     inkscape:window-width="1408"
     inkscape:window-height="934"
     inkscape:window-x="1772"
     inkscape:window-y="263"
     inkscape:window-maximized="0"
     inkscape:current-layer="svg3"
     showborder="true"
     borderlayer="true"
     inkscape:antialias-rendering="true"
     inkscape:clip-to-page="false" />
  <path
     d="M 189.71405,0 C 140.72914,1.029049 90.55983,6.523795 45.34702,26.576333 25.40888,35.994823 3.65725,50.607513 0.2193,73.960243 c 6.14325,-19.91724 26.34828,-30.43738 44.40292,-37.86107 46.67661,-17.50659 97.23377,-21.29309 146.68518,-21.59203 48.72096,0.67104 98.33402,4.93359 144.50213,21.50283 C 355.02177,43.266013 376.793,54.529553 384,74.238993 379.7655,48.597713 355.48142,32.740473 333.25224,23.216183 288.10027,4.569446 238.09186,0.06195 189.71405,0 Z"
     id="path1"
     style="fill:#3758a4;fill-opacity:1;stroke-width:0.0371604;stroke-dasharray:none" />
  <path
     d="m 109.09672,67.700843 c -3.62775,18.12024 -6.60135,32.973227 -6.6125,33.006677 -0.015,0.0632 0.28625,0.0669 5.98065,0.0669 h 5.99914 l 0.3494,-1.746947 c 0.1933,-0.9627 0.36055,-1.747 0.3717,-1.747 0.011,0 0.0445,0.0335 0.0669,0.0707 0.1301,0.20815 0.6951,0.86605 1.03705,1.2117 1.95515,1.966297 4.557,2.962447 7.96919,3.055347 5.2112,0.13755 10.1213,-1.981147 14.43669,-6.229647 2.0778,-2.05175 3.6724,-4.2968 5.0588,-7.12169 2.1187,-4.33025 3.49025,-9.7719 3.77645,-14.99794 0.0521,-0.96645 0.0225,-2.8844 -0.0594,-3.75045 -0.31225,-3.3527 -1.2006,-5.91369 -2.85095,-8.22934 -2.0629,-2.89555 -4.7577,-4.60165 -8.1699,-5.17035 -1.81384,-0.30105 -4.05519,-0.26015 -5.92854,0.1078 -2.8063,0.55755 -5.4565,1.8808 -7.72759,3.8694 -0.10405,0.0892 -0.1933,0.1561 -0.2007,0.14865 -0.011,-0.015 5.02534,-25.25678 5.06994,-25.42033 0.0185,-0.0595 -0.2825,-0.0632 -5.97689,-0.0632 h -5.9992 z m 21.18303,-1.12995 c 0.99985,0.23415 1.7098,0.6393 2.4123,1.36785 0.814,0.84375 1.5091,2.1967 1.78045,3.47165 0.4163,1.93655 0.3122,4.43805 -0.31225,7.48969 -0.64675,3.1557 -1.602,5.6981 -2.8509,7.56405 -0.51295,0.7694 -0.95155,1.2972 -1.69865,2.04805 -1.34185,1.34924 -2.6725,2.12609 -4.1816,2.44944 -0.51295,0.1115 -1.63175,0.14125 -2.15584,0.0595 -1.21545,-0.18585 -2.30455,-0.7843 -3.0888,-1.69864 -0.94785,-1.10395 -1.47565,-2.3157 -1.7247,-3.9549 -0.10405,-0.66905 -0.14125,-2.2599 -0.0781,-3.14825 0.1487,-1.98485 0.6133,-4.4232 1.23405,-6.42664 1.0519,-3.40475 2.53125,-5.77245 4.67964,-7.486 1.23405,-0.985 2.48295,-1.56855 3.8099,-1.78415 0.49065,-0.078 1.747,-0.052 2.17445,0.0485 z M 88.51958,55.932903 c -3.41214,0.20075 -6.08839,0.8326 -8.88724,2.0964 -4.0664,1.8362 -8.01009,5.1926 -10.86474,9.25154 -3.03675,4.3191 -4.8878,9.5786 -5.36355,15.26184 -0.0595,0.73225 -0.0595,2.93645 0,3.6055 0.25645,2.81745 0.93665,5.18889 2.09635,7.31499 2.3454,4.30425 5.88025,6.857797 10.77549,7.794447 2.3417,0.44605 5.33015,0.48695 7.932,0.1078 4.79489,-0.69505 9.02484,-2.739397 12.87934,-6.218497 4.45289,-4.02175 7.47109,-9.05449 8.91699,-14.87159 1.49795,-6.02149 1.1783,-11.28099 -0.9441,-15.52204 -0.40145,-0.80284 -0.55755,-1.06304 -1.1188,-1.91054 -1.55,-2.34165 -3.35275,-3.96225 -5.70184,-5.1331 -1.9068,-0.94785 -3.9883,-1.49425 -6.59765,-1.7247 -0.4423,-0.041 -2.6985,-0.0781 -3.12225,-0.0521 z m -0.2007,10.53389 c 2.0183,0.197 3.57945,1.1523 4.69455,2.8658 0.2713,0.42375 0.75825,1.36785 0.9478,1.84735 0.3011,0.75825 0.53155,1.6429 0.6542,2.5387 0.0817,0.57985 0.1152,2.1075 0.0595,2.8063 -0.14865,1.87704 -0.62815,3.93254 -1.34555,5.73899 -0.42745,1.08165 -1.24515,2.5833 -1.89935,3.49395 -0.6133,0.8512 -1.5797,1.9477 -2.3045,2.61305 -1.8994,1.75439 -3.91769,2.64274 -6.19994,2.72824 -1.9737,0.0744 -3.58685,-0.4832 -4.80975,-1.66149 -1.35295,-1.30465 -2.2116,-3.25235 -2.4978,-5.6498 -0.0781,-0.65045 -0.0892,-2.1224 -0.0185,-2.8435 0.36055,-3.82475 1.69865,-7.28149 3.88055,-9.99864 2.07035,-2.5833 4.3414,-4.0515 6.82804,-4.41945 0.66535,-0.10035 1.38645,-0.11895 2.0109,-0.0595 z m 103.88557,-10.53014 c -0.1524,0.007 -0.59475,0.037 -0.985,0.0706 -5.68699,0.46465 -10.73089,2.72455 -15.24329,6.82065 -0.2862,0.2602 -0.8921,0.8549 -1.34555,1.3158 -0.4535,0.4609 -0.8252,0.83634 -0.8252,0.82889 0,-0.007 0.368,-1.85104 0.81775,-4.09609 0.44975,-2.24875 0.8103,-4.0924 0.80285,-4.10355 -0.0632,-0.0632 -1.13365,-0.27875 -1.79525,-0.36425 -0.64304,-0.0818 -1.84364,-0.0818 -2.48294,0 -3.02935,0.3903 -5.83565,2.1298 -8.37435,5.1926 -0.2007,0.2416 -0.36425,0.43115 -0.368,0.42745 0,0 0.22675,-1.1671 0.51295,-2.587 0.2825,-1.4199 0.51665,-2.6019 0.51665,-2.6279 0,-0.041 -1.17825,-0.0485 -5.98429,-0.0485 h -5.98435 l -0.0185,0.0818 c -0.011,0.0485 -1.98485,9.91314 -4.38974,21.92268 -2.40115,12.00954 -4.3786,21.874337 -4.38975,21.918987 l -0.0185,0.0855 h 11.99469 l 2.6725,-13.373637 c 1.4682,-7.35215 2.72825,-13.61154 2.79515,-13.90889 0.60215,-2.55355 1.82504,-4.58305 3.58314,-5.94345 1.6875,-1.30835 3.2784,-1.94025 4.88785,-1.94025 0.60955,0 0.9292,0.037 1.4719,0.171 0.80285,0.2007 1.4459,0.52405 1.93285,0.97755 l 0.21555,0.197 -0.34195,0.47205 c -2.88435,4.0069 -4.72055,8.90585 -5.28555,14.11704 -0.1338,1.24145 -0.1747,3.11485 -0.0929,4.21505 0.3271,4.40089 1.96625,8.08814 4.9064,11.04309 3.31924,3.337847 7.82794,4.936147 13.58549,4.813497 3.62034,-0.0744 6.66084,-0.69505 9.47459,-1.932797 0.82145,-0.3643 2.2636,-1.1374 2.6316,-1.40875 0.0445,-0.037 0.33455,-1.41245 1.18199,-5.6535 0.617,-3.08139 1.1151,-5.61264 1.10765,-5.62009 -0.007,-0.007 -0.20445,0.1487 -0.4386,0.342 -3.05904,2.53494 -6.35974,3.99199 -9.99864,4.41574 -0.27505,0.0335 -0.8809,0.0781 -1.34925,0.10405 -2.07779,0.1041 -3.78014,-0.18585 -5.24839,-0.89575 -2.0815,-1.01105 -3.51995,-2.77659 -4.1667,-5.12199 -0.18215,-0.66535 -0.368,-1.75815 -0.3011,-1.75815 0.007,0 0.22305,0.0966 0.4758,0.2193 2.48665,1.1783 5.4974,1.71725 8.79804,1.5723 2.7357,-0.11895 4.99565,-0.5464 7.25555,-1.36415 4.31169,-1.5611 7.84649,-4.28195 9.96519,-7.66064 0.15985,-0.2602 0.29365,-0.4572 0.29365,-0.4386 0,0.0185 -0.0818,0.38655 -0.18215,0.81399 -1.7061,7.2518 -1.6206,12.61539 0.2565,16.75239 0.94035,2.06665 2.57955,4.06635 4.37115,5.33385 2.27849,1.609447 5.10709,2.389997 8.34084,2.304497 2.78405,-0.0781 5.24465,-0.73965 7.60124,-2.055447 0.8846,-0.49435 2.03315,-1.2898 2.84345,-1.98115 0.1933,-0.16355 0.35685,-0.2788 0.36425,-0.25275 0.005,0.026 -0.93665,4.761387 -2.09265,10.522737 -1.15595,5.765 -2.10005,10.49299 -2.10005,10.51159 0,0.015 2.6948,0.026 5.99175,0.0225 l 5.98804,-0.011 6.1627,-30.776517 c 3.3899,-16.92709 6.16274,-30.78763 6.16644,-30.80623 0,-0.015 -2.69479,-0.0225 -5.99174,-0.0185 l -5.99175,0.011 -0.34565,1.7247 c -0.1896,0.9478 -0.35314,1.7321 -0.36429,1.74325 -0.011,0.011 -0.0225,0.011 -0.0295,0.005 -0.7583,-1.02215 -1.6578,-1.8808 -2.6465,-2.53125 -0.4981,-0.3271 -1.4496,-0.8103 -1.9886,-1.011 -3.0702,-1.12625 -7.0288,-1.06305 -10.58219,0.17095 -2.96985,1.0259 -6.00665,3.0182 -8.48585,5.55315 -2.08149,2.13355 -3.79874,4.72799 -5.21489,7.89484 -0.03,0.0632 -0.011,-0.14865 0.0744,-0.87345 0.0892,-0.75085 0.0892,-2.85465 0,-3.53115 -0.28625,-2.14094 -0.9627,-3.86564 -2.115,-5.41559 -2.4532,-3.29325 -6.59014,-4.8098 -12.48154,-4.5756 z m -0.2788,9.74959 c 0.9627,0.078 1.5723,0.23415 2.2302,0.55755 0.7657,0.37915 1.21545,0.82515 1.5611,1.54255 0.3197,0.6616 0.42745,1.2043 0.42745,2.13355 0,1.2526 -0.26015,2.4755 -0.7099,3.3527 -0.75085,1.4645 -2.2339,2.63905 -4.10725,3.2635 -1.03705,0.34565 -2.10755,0.51665 -3.47165,0.5501 -3.15199,0.078 -5.89514,-0.6839 -8.09184,-2.2525 -0.1896,-0.1338 -0.3457,-0.2713 -0.3457,-0.30475 0,-0.0967 0.79545,-1.6615 1.12255,-2.20045 0.67645,-1.11885 1.35295,-1.9849 2.2785,-2.9104 0.89575,-0.8995 1.67635,-1.5128 2.72825,-2.1484 1.96254,-1.18945 4.24849,-1.75815 6.37829,-1.58345 z m 36.07317,0.90325 c 1.5537,0.36795 2.67995,1.33435 3.52745,3.0293 0.64675,1.2935 0.93665,2.7134 0.94035,4.5979 0.005,1.5128 -0.1598,2.97729 -0.5315,4.77629 -0.7471,3.60175 -1.9886,6.4415 -3.72815,8.53045 -0.45715,0.5464 -1.3418,1.4385 -1.76925,1.78045 -1.05935,0.84744 -2.20045,1.40869 -3.36384,1.65774 -0.539,0.11525 -1.63175,0.14495 -2.19305,0.0595 -1.07045,-0.1673 -1.9997,-0.6505 -2.73565,-1.42734 -0.39775,-0.42 -0.6691,-0.79915 -0.99245,-1.39015 -0.7211,-1.3232 -0.9887,-2.56095 -0.9887,-4.5644 0.005,-1.3939 0.14865,-2.81375 0.4609,-4.4418 0.75825,-3.96974 1.94025,-6.98049 3.5274,-8.96904 1.5128,-1.8994 3.24489,-3.152 4.94729,-3.572 0.63185,-0.15615 0.9441,-0.18585 1.74695,-0.1747 0.6505,0.015 0.81775,0.0295 1.15225,0.1078 z m 79.24579,-10.65284 c -2.1075,0.0817 -4.56815,0.52035 -6.5716,1.17085 -4.04779,1.30835 -7.60494,3.5757 -10.93534,6.9656 -2.8063,2.85459 -4.86919,6.06979 -6.30394,9.82764 -0.1301,0.33825 -0.2342,0.6059 -0.2379,0.59475 0,-0.011 0.79545,-3.99205 1.76555,-8.8464 0.97014,-4.85439 1.76554,-8.83894 1.76554,-8.85384 0,-0.0185 -2.69104,-0.0295 -5.98429,-0.0295 h -5.98435 l -0.0185,0.0818 c -0.011,0.0485 -1.2415,6.1813 -2.73199,13.63384 -1.4942,7.45254 -2.77285,13.77139 -2.84345,14.04269 -0.4721,1.79905 -1.4645,3.49025 -2.7357,4.6648 -1.6355,1.50539 -3.4828,2.25619 -5.5643,2.25619 -1.26379,0 -2.20789,-0.29735 -2.85464,-0.9032 -0.591,-0.5501 -0.9144,-1.18569 -1.08165,-2.12239 -0.0817,-0.4572 -0.0781,-1.4236 0.005,-2.0109 0.037,-0.2453 1.37525,-6.9953 2.981,-15.00169 1.60199,-8.00634 2.91409,-14.57794 2.91409,-14.60024 0,-0.0295 -1.6615,-0.041 -5.98059,-0.041 -5.6647,0 -5.98435,0.005 -6.0029,0.0632 -0.0743,0.2565 -6.28169,31.43813 -6.33744,31.84698 -0.14125,0.99614 -0.171,1.43849 -0.171,2.58329 0,1.49795 0.1041,2.4235 0.4126,3.61665 0.42,1.6243 0.97755,2.81745 1.76925,3.76155 1.5017,1.798997 3.54974,2.739397 6.46009,2.958697 0.6728,0.0521 2.0518,0.0225 2.8621,-0.0557 4.01805,-0.4014 7.46364,-1.962547 10.60819,-4.813447 0.18215,-0.16355 0.33825,-0.29365 0.3494,-0.2862 0.011,0.011 -0.75825,3.917647 -0.8363,4.252197 l -0.0185,0.0817 5.9955,-0.007 5.99544,-0.011 1.7656,-8.827847 1.76925,-8.82779 0.0225,1.3753 c 0.03,1.6392 0.1115,2.4792 0.3717,3.7727 0.66535,3.29324 2.20415,6.17764 4.56814,8.55274 3.31925,3.337847 7.82795,4.936147 13.58554,4.813497 3.6203,-0.0744 6.6608,-0.69505 9.47455,-1.932797 0.82145,-0.3643 2.26364,-1.1374 2.63159,-1.40875 0.0445,-0.037 0.33455,-1.41245 1.182,-5.6535 0.61705,-3.08139 1.1151,-5.61264 1.1077,-5.62009 -0.007,-0.007 -0.20445,0.1487 -0.43865,0.342 -3.05905,2.53494 -6.35969,3.99199 -9.99864,4.41574 -0.27505,0.0335 -0.8809,0.078 -1.34925,0.10405 -2.0778,0.1041 -3.78015,-0.18585 -5.24834,-0.89575 -2.0815,-1.01105 -3.52,-2.77659 -4.16675,-5.12199 -0.1821,-0.66535 -0.36795,-1.75815 -0.30105,-1.75815 0.007,0 0.223,0.0966 0.47575,0.2193 2.48665,1.1783 5.49739,1.71725 8.79809,1.5723 2.7357,-0.11895 4.9956,-0.5464 7.2555,-1.36415 3.64634,-1.32325 6.74629,-3.47165 8.90959,-6.1776 2.07035,-2.59444 3.20405,-5.57174 3.5274,-9.28869 0.0743,-0.8549 0.0557,-2.41605 -0.037,-3.13715 -0.27505,-2.09264 -0.9627,-3.85074 -2.11125,-5.39699 -2.4532,-3.29325 -6.5902,-4.8098 -12.48159,-4.5756 z m -0.27875,9.74959 c 0.9627,0.078 1.57225,0.23415 2.23015,0.55755 0.7657,0.37915 1.21545,0.82515 1.56114,1.54255 0.31965,0.6616 0.42745,1.2043 0.42745,2.13355 0,1.2526 -0.2602,2.4755 -0.70994,3.3527 -0.75085,1.4645 -2.2339,2.63905 -4.10725,3.2635 -1.03705,0.34565 -2.1075,0.51665 -3.47165,0.5501 -3.152,0.078 -5.89509,-0.6839 -8.09184,-2.2525 -0.18955,-0.1338 -0.3457,-0.2713 -0.3457,-0.30475 0,-0.0967 0.79545,-1.6615 1.12255,-2.20045 0.6765,-1.11885 1.35295,-1.9849 2.2785,-2.9104 0.89579,-0.8995 1.67634,-1.5128 2.72824,-2.1484 1.96255,-1.18945 4.2485,-1.75815 6.37835,-1.58345 z"
     id="path2"
     style="fill:#3758a4;fill-opacity:1;stroke-width:0.0371604;stroke-dasharray:none" />
  <path
     d="m 0,80.204733 c 4.3088,25.768877 28.52593,41.654267 50.86671,51.178957 47.02652,19.28094 98.77192,23.60353 149.12943,23.08838 47.11677,-1.45295 95.33008,-7.08674 138.74979,-26.50803 19.91784,-9.33419 41.50227,-24.05893 45.21692,-47.298407 -7.28975,21.779577 -30.18213,32.465527 -50.25341,39.976017 -48.49456,16.62434 -100.53447,19.83328 -151.42933,19.29103 C 135.2764,138.44254 87.31758,133.82139 43.17257,116.57155 25.79528,109.32761 6.3588,98.520073 0,80.204733 Z"
     id="path3"
     style="fill:#3758a4;fill-opacity:1;stroke-width:0.0371604;stroke-dasharray:none" />
  <path
     d="m 83.52404,164.35072 c -1.0593,0.10775 -1.94765,0.39024 -2.6353,0.83629 -0.9218,0.60215 -1.56115,1.5797 -1.80275,2.74685 -0.14865,0.7285 -0.16725,1.8845 -0.0445,2.63905 0.31595,1.89935 1.46075,3.14085 3.3267,3.60545 1.6875,0.42 3.81729,0.25275 5.07364,-0.40145 1.17455,-0.60955 1.91055,-1.65775 2.20415,-3.12965 0.0521,-0.27135 0.067,-0.5167 0.0632,-1.2824 0,-0.8772 -0.007,-0.98125 -0.0967,-1.39385 -0.4423,-2.0629 -1.7767,-3.23745 -4.04774,-3.56829 -0.48695,-0.0706 -1.57975,-0.10035 -2.04065,-0.052 z m 1.45705,2.14839 c 1.11509,0.2862 1.62804,1.19315 1.62804,2.88435 0,1.98485 -0.73594,2.955 -2.24874,2.955 -1.07795,0 -1.773,-0.49435 -2.1001,-1.4868 -0.2416,-0.73595 -0.24905,-2.11865 -0.015,-2.89925 0.2193,-0.7471 0.76195,-1.2749 1.48305,-1.4533 0.36055,-0.0892 0.8995,-0.0892 1.2526,0 z m 40.39601,-2.16699 c -0.0706,0.007 -0.2899,0.0335 -0.4832,0.0557 -2.79884,0.31594 -4.31169,2.06289 -4.31169,4.97329 0,1.59085 0.4312,2.8063 1.3047,3.68355 0.7917,0.7991 1.86219,1.21915 3.40099,1.3455 l 0.55385,0.0445 1.73955,1.2192 c 0.95895,0.67275 1.7544,1.22285 1.773,1.2303 0.0185,0.005 0.3345,-0.4386 0.7025,-0.9887 l 0.67275,-0.99615 -0.1561,-0.0669 c -0.0892,-0.037 -0.5018,-0.22305 -0.9218,-0.4126 -0.42005,-0.18955 -0.81775,-0.368 -0.88835,-0.3977 l -0.1264,-0.0557 0.31225,-0.15615 c 1.30465,-0.64675 2.0146,-1.6243 2.3268,-3.2003 0.0521,-0.2676 0.0669,-0.52035 0.0669,-1.2452 0,-0.7954 -0.011,-0.96265 -0.0855,-1.33065 -0.4832,-2.40115 -2.1893,-3.63889 -5.09965,-3.70209 -0.35685,-0.011 -0.70995,-0.008 -0.7806,0 z m 1.17085,2.15209 c 0.5241,0.11155 1.01475,0.44975 1.2712,0.87725 0.27505,0.4609 0.42005,1.1634 0.42005,2.022 0,1.16715 -0.22675,1.91795 -0.72855,2.39745 -0.39025,0.3754 -0.89205,0.55755 -1.5388,0.55755 -1.29725,0 -2.04805,-0.7471 -2.2339,-2.2153 -0.0557,-0.4386 -0.0225,-1.4905 0.0557,-1.8362 0.2825,-1.2526 0.97755,-1.84735 2.15955,-1.85475 0.18585,0 0.45345,0.0225 0.5947,0.052 z m 76.73684,-2.13724 c -2.39,0.23044 -4.0292,1.41244 -4.6611,3.36384 -0.2862,0.8884 -0.3531,2.01835 -0.17095,2.955 0.17095,0.88835 0.50175,1.5351 1.10765,2.15955 0.79915,0.83265 1.9254,1.327 3.4828,1.524 0.53525,0.0669 1.85105,0.0595 2.5461,-0.015 0.76945,-0.0855 1.49425,-0.20815 1.5463,-0.26015 0.0225,-0.026 0.1189,-0.53155 0.21555,-1.12255 0.0966,-0.5947 0.18215,-1.10395 0.1933,-1.1411 0.015,-0.0521 -0.0335,-0.0445 -0.3457,0.0485 -1.208,0.35685 -2.7617,0.46465 -3.7095,0.2639 -0.9813,-0.21185 -1.6987,-0.84375 -1.93655,-1.70605 -0.14125,-0.5204 -0.093,-1.6169 0.10035,-2.2079 0.27875,-0.8549 0.88465,-1.4199 1.7321,-1.6206 0.35685,-0.0818 1.4719,-0.093 1.9068,-0.015 0.4312,0.0743 1.10025,0.249 1.50165,0.38655 0.2379,0.0855 0.368,0.1152 0.37545,0.0855 0.008,-0.0225 0.0892,-0.5018 0.18585,-1.06305 0.0929,-0.5613 0.1784,-1.0519 0.18955,-1.0854 0.015,-0.052 -0.041,-0.0817 -0.29735,-0.1598 -0.4758,-0.14495 -1.0668,-0.27134 -1.58345,-0.33454 -0.56125,-0.0706 -1.89195,-0.10035 -2.37885,-0.0558 z m 37.50422,0 c -2.39005,0.23044 -4.0292,1.41244 -4.6611,3.36384 -0.2862,0.8884 -0.3531,2.01835 -0.171,2.955 0.171,0.88835 0.5018,1.5351 1.1077,2.15955 0.79915,0.83265 1.92535,1.327 3.4828,1.524 0.53525,0.0669 1.85105,0.0595 2.5461,-0.015 0.7694,-0.0855 1.49425,-0.20815 1.54625,-0.26015 0.0225,-0.026 0.11895,-0.53155 0.2156,-1.12255 0.0967,-0.5947 0.18215,-1.10395 0.1933,-1.1411 0.015,-0.0521 -0.0335,-0.0445 -0.3457,0.0485 -1.208,0.35685 -2.7617,0.46465 -3.70955,0.2639 -0.98125,-0.21185 -1.69865,-0.84375 -1.9365,-1.70605 -0.14125,-0.5204 -0.0929,-1.6169 0.10035,-2.2079 0.27875,-0.8549 0.8846,-1.4199 1.7321,-1.6206 0.3568,-0.0818 1.4719,-0.093 1.9068,-0.015 0.43115,0.0743 1.1002,0.249 1.50165,0.38655 0.2379,0.0855 0.368,0.1152 0.3754,0.0855 0.007,-0.0225 0.0892,-0.5018 0.18585,-1.06305 0.093,-0.5613 0.17845,-1.0519 0.1896,-1.0854 0.015,-0.052 -0.041,-0.0817 -0.29735,-0.1598 -0.4758,-0.14495 -1.0668,-0.27134 -1.58345,-0.33454 -0.56125,-0.0706 -1.89195,-0.10035 -2.37885,-0.0558 z m -149.16198,5.03649 v 4.89155 l 2.74315,-0.015 c 2.31565,-0.011 2.79885,-0.0225 3.1297,-0.078 0.58355,-0.0892 1.05559,-0.2267 1.44959,-0.42 0.2862,-0.13755 0.40515,-0.223 0.6319,-0.45345 0.49435,-0.4981 0.67645,-0.9776 0.67645,-1.80645 0.005,-0.591 -0.0669,-0.84375 -0.34565,-1.2638 -0.3494,-0.5241 -0.82145,-0.8177 -1.63174,-1.02585 l -0.16725,-0.041 0.25275,-0.0669 c 1.06674,-0.2788 1.57224,-1.0742 1.44214,-2.2711 -0.1412,-1.30835 -0.8772,-1.98115 -2.45689,-2.25245 -0.29735,-0.0521 -0.78055,-0.0632 -3.03675,-0.0743 l -2.6874,-0.0185 z m 4.6165,-2.8286 c 0.20815,0.078 0.4163,0.29365 0.47205,0.49435 0.0892,0.3234 0.03,0.6802 -0.1487,0.8809 -0.18585,0.2119 -0.36795,0.2565 -1.15595,0.2751 l -0.6988,0.015 v -1.76185 l 0.6802,0.015 c 0.51295,0.015 0.7174,0.0335 0.8512,0.0818 z m 0.31595,3.6984 c 0.23045,0.10035 0.4646,0.34195 0.53525,0.54635 0.0594,0.17845 0.0594,0.66165 0,0.81405 -0.13385,0.3345 -0.39775,0.53525 -0.79915,0.60955 -0.1227,0.0225 -0.52785,0.041 -0.90325,0.041 h -0.6802 v -2.1261 l 0.8289,0.015 c 0.7657,0.011 0.84,0.0185 1.01845,0.1004 z m 5.32639,-0.8735 v 4.89155 h 3.0851 v -2.9736 h 0.91065 l 0.69135,1.47565 0.69135,1.47935 1.69495,0.011 c 0.9367,0.005 1.69865,0 1.69865,-0.007 0,-0.007 -0.43485,-0.7917 -0.9664,-1.74695 -0.53155,-0.95155 -0.97755,-1.7507 -0.985,-1.77675 -0.011,-0.0295 0.0781,-0.1115 0.21185,-0.197 0.68765,-0.4423 1.1746,-1.17455 1.31585,-1.9923 0.0781,-0.45715 0.0558,-1.15595 -0.0558,-1.57595 -0.32705,-1.25265 -1.3381,-2.06295 -2.94755,-2.364 -0.394,-0.0744 -0.5687,-0.0818 -2.88065,-0.0966 l -2.46435,-0.0185 z m 4.6165,-2.65765 c 0.29735,0.11525 0.52035,0.368 0.60585,0.68765 0.0929,0.3345 0.0669,0.93295 -0.0521,1.19315 -0.1115,0.25275 -0.3122,0.44975 -0.56125,0.5464 -0.1747,0.0706 -0.29735,0.0817 -0.86235,0.0966 l -0.6616,0.015 v -2.6539 l 0.6616,0.015 c 0.57245,0.015 0.68395,0.026 0.8698,0.10035 z m 5.64234,2.66135 v 4.88785 h 6.9433 l 0.0225,-0.1041 c 0.0335,-0.16355 0.35685,-1.9663 0.35685,-1.9923 0,-0.011 -0.95155,-0.0225 -2.1187,-0.0225 h -2.11865 v -1.8213 h 3.1594 l 0.0185,-0.0855 c 0.0335,-0.14495 0.3531,-1.95515 0.3531,-1.996 0,-0.026 -0.5947,-0.037 -1.76555,-0.037 h -1.76555 v -1.5983 h 3.8582 l 0.0225,-0.10405 c 0.0335,-0.16355 0.35685,-1.9663 0.35685,-1.9923 0,-0.011 -1.64665,-0.0225 -3.66125,-0.0225 h -3.6612 z m 21.16069,-1.33065 c 0.011,3.29695 0.015,3.5757 0.0781,3.78385 0.20815,0.68765 0.65045,1.32695 1.1894,1.7098 0.86235,0.6096 2.19674,0.9181 3.70209,0.85865 1.28235,-0.0485 2.2265,-0.3085 2.981,-0.8103 0.6765,-0.4535 1.13,-1.12995 1.29725,-1.944 0.0632,-0.3122 0.0706,-0.56125 0.0706,-3.7467 v -3.40844 h -3.0479 v 2.98099 c -0.005,1.6429 -0.0185,3.152 -0.037,3.36015 -0.0445,0.49805 -0.145,0.75825 -0.3866,1.0036 -0.3048,0.30105 -0.5092,0.36425 -1.19315,0.36425 -0.4906,0 -0.58355,-0.007 -0.7694,-0.0818 -0.46835,-0.18955 -0.7434,-0.58355 -0.8103,-1.1671 -0.0225,-0.171 -0.037,-1.67635 -0.037,-3.38615 v -3.07394 h -3.05164 z m 11.43714,1.33065 v 4.88785 h 6.94329 l 0.0225,-0.1041 c 0.0335,-0.16355 0.3568,-1.9663 0.3568,-1.9923 0,-0.011 -0.9515,-0.0225 -2.11865,-0.0225 h -2.11864 v -1.8213 h 3.15939 l 0.0185,-0.0855 c 0.0335,-0.14495 0.3531,-1.95515 0.3531,-1.996 0,-0.026 -0.5947,-0.037 -1.76555,-0.037 h -1.76554 v -1.5983 h 3.85819 l 0.0225,-0.10405 c 0.0335,-0.16355 0.3568,-1.9663 0.3568,-1.9923 0,-0.011 -1.6466,-0.0225 -3.6612,-0.0225 h -3.66119 z m 14.49619,-4.80605 c -0.0185,0.0485 -0.79545,2.2488 -1.721,4.89155 l -1.6875,4.80235 1.60205,-0.007 1.5983,-0.011 0.223,-0.75455 0.2193,-0.75085 1.52764,0.007 1.524,0.011 0.2267,0.7434 0.23045,0.7434 1.5983,0.011 1.60205,0.007 -0.171,-0.4944 c -0.0967,-0.2713 -0.86975,-2.47175 -1.71725,-4.8878 l -1.54255,-4.39344 h -3.47534 z m 2.22644,4.64625 0.4349,1.46075 -0.8884,0.011 c -0.49059,0.005 -0.89949,0.005 -0.90689,-0.007 -0.007,-0.007 0.1784,-0.64675 0.4163,-1.41985 0.23785,-0.77685 0.43859,-1.4385 0.44974,-1.47565 0.011,-0.037 0.0295,-0.0595 0.041,-0.0485 0.011,0.007 0.2156,0.6765 0.4535,1.4794 z m 5.98805,0.1598 v 4.89155 l 2.7431,-0.015 c 2.3157,-0.011 2.7989,-0.0225 3.12969,-0.078 0.58355,-0.0892 1.0556,-0.2267 1.4496,-0.42 0.28625,-0.13755 0.40515,-0.223 0.6319,-0.45345 0.49435,-0.4981 0.6765,-0.9776 0.6765,-1.80645 0.005,-0.591 -0.0669,-0.84375 -0.3457,-1.2638 -0.3494,-0.5241 -0.82145,-0.8177 -1.63175,-1.02585 l -0.16725,-0.041 0.25275,-0.0669 c 1.0668,-0.2788 1.5723,-1.0742 1.4422,-2.2711 -0.14125,-1.30835 -0.8772,-1.98115 -2.45694,-2.25245 -0.29735,-0.0521 -0.78055,-0.0632 -3.03675,-0.0743 l -2.68735,-0.0185 z m 4.61645,-2.8286 c 0.20815,0.078 0.4163,0.29365 0.47205,0.49435 0.0892,0.3234 0.0295,0.6802 -0.14865,0.8809 -0.18585,0.2119 -0.368,0.2565 -1.156,0.2751 l -0.6988,0.015 v -1.76185 l 0.68025,0.015 c 0.5129,0.015 0.71735,0.0335 0.85115,0.0818 z m 0.31595,3.6984 c 0.23045,0.10035 0.46465,0.34195 0.53525,0.54635 0.0594,0.17845 0.0594,0.66165 0,0.81405 -0.1338,0.3345 -0.3977,0.53525 -0.79915,0.60955 -0.12265,0.0225 -0.5278,0.041 -0.9032,0.041 h -0.68025 v -2.1261 l 0.8289,0.015 c 0.7657,0.011 0.84005,0.0185 1.01845,0.1004 z m 7.92829,-5.67585 c -0.0185,0.0485 -0.7954,2.2488 -1.72095,4.89155 l -1.6875,4.80235 1.602,-0.007 1.5983,-0.011 0.22305,-0.75455 0.2193,-0.75085 1.52765,0.007 1.52395,0.011 0.22675,0.7434 0.23045,0.7434 1.5983,0.011 1.60199,0.007 -0.17095,-0.4944 c -0.0967,-0.2713 -0.8698,-2.47175 -1.71724,-4.8878 l -1.54255,-4.39344 h -3.47535 z m 2.22645,4.64625 0.4349,1.46075 -0.88835,0.011 c -0.49065,0.005 -0.8995,0.005 -0.90695,-0.007 -0.007,-0.007 0.17845,-0.64675 0.4163,-1.41985 0.2379,-0.77685 0.4386,-1.4385 0.44975,-1.47565 0.011,-0.037 0.03,-0.0595 0.041,-0.0485 0.011,0.007 0.2156,0.6765 0.45345,1.4794 z m 5.98804,0.1561 v 4.89155 h 3.0851 v -2.9736 h 0.91065 l 0.69135,1.47565 0.69135,1.47935 1.69495,0.011 c 0.9367,0.005 1.69865,0 1.69865,-0.007 0,-0.007 -0.43485,-0.7917 -0.9664,-1.74695 -0.5315,-0.95155 -0.97755,-1.7507 -0.985,-1.77675 -0.011,-0.0295 0.078,-0.1115 0.2119,-0.197 0.6876,-0.4423 1.17455,-1.17455 1.3158,-1.9923 0.0781,-0.45715 0.0557,-1.15595 -0.0557,-1.57595 -0.3271,-1.25265 -1.33815,-2.06295 -2.9476,-2.364 -0.394,-0.0744 -0.5687,-0.0818 -2.88065,-0.0966 l -2.46435,-0.0185 z m 4.6165,-2.65765 c 0.29735,0.11525 0.52035,0.368 0.60585,0.68765 0.0929,0.3345 0.0669,0.93295 -0.0521,1.19315 -0.1115,0.25275 -0.3122,0.44975 -0.56125,0.5464 -0.1747,0.0706 -0.29735,0.0817 -0.86235,0.0966 l -0.6616,0.015 v -2.6539 l 0.6616,0.015 c 0.57245,0.015 0.68395,0.026 0.8698,0.10035 z m 18.54023,-2.1447 c -0.0185,0.0485 -0.79545,2.2488 -1.72094,4.89155 l -1.6875,4.80235 1.602,-0.007 1.59829,-0.011 0.223,-0.75455 0.2193,-0.75085 1.5277,0.007 1.52395,0.011 0.22675,0.7434 0.23045,0.7434 1.5983,0.011 1.602,0.007 -0.171,-0.4944 c -0.0966,-0.2713 -0.86975,-2.47175 -1.7172,-4.8878 l -1.54255,-4.39344 h -3.4754 z m 2.22645,4.64625 0.4349,1.46075 -0.88835,0.011 c -0.49065,0.005 -0.8995,0.005 -0.90695,-0.007 -0.008,-0.007 0.1784,-0.64675 0.4163,-1.41985 0.2379,-0.77685 0.4386,-1.4385 0.44975,-1.47565 0.011,-0.037 0.03,-0.0595 0.041,-0.0485 0.011,0.007 0.2156,0.6765 0.45345,1.4794 z m 8.10675,-4.7094 c 0,0.011 0.7694,1.3641 1.70979,3.007 l 1.7098,2.98475 v 3.7653 h 3.0851 v -3.70955 l 1.7098,-3.0219 1.7061,-3.0256 -1.60205,-0.011 c -0.88465,-0.005 -1.61685,0.005 -1.63175,0.0185 -0.015,0.0185 -0.3977,0.7917 -0.84745,1.72095 -0.4535,0.92925 -0.83635,1.7024 -0.8512,1.71725 -0.0185,0.0185 -0.4126,-0.75455 -0.88465,-1.7135 l -0.85115,-1.74699 -1.62435,-0.005 c -0.89579,0 -1.62799,0.008 -1.62799,0.0185 z m 24.60633,4.8692 v 4.88785 h 3.08504 v -9.77564 h -3.08504 z m 7.80559,-4.80605 c -0.0185,0.0485 -0.7954,2.2488 -1.72095,4.89155 l -1.6875,4.80235 1.602,-0.007 1.5983,-0.011 0.22305,-0.75455 0.2193,-0.75085 1.52765,0.007 1.52395,0.011 0.22675,0.7434 0.23045,0.7434 1.5983,0.011 1.60199,0.007 -0.17095,-0.4944 c -0.0967,-0.2713 -0.86979,-2.47175 -1.71724,-4.8878 l -1.54255,-4.39344 h -3.47535 z m 2.2265,4.64625 0.43485,1.46075 -0.88835,0.011 c -0.4906,0.005 -0.8995,0.005 -0.9069,-0.007 -0.007,-0.007 0.1784,-0.64675 0.4163,-1.41985 0.23785,-0.77685 0.4386,-1.4385 0.44975,-1.47565 0.011,-0.037 0.0295,-0.0595 0.041,-0.0485 0.011,0.007 0.2156,0.6765 0.4535,1.4794 z m 8.96159,0.1598 v 4.88785 h 6.4564 l 0.1747,-0.99615 c 0.0966,-0.5464 0.18585,-1.0222 0.19325,-1.05935 0.0185,-0.0595 -0.0892,-0.0632 -1.85845,-0.0632 h -1.8808 v -7.65694 h -3.0851 z m 6.35605,-3.82845 v 1.0593 h 2.52749 v 7.657 h 3.0851 v -7.657 h 2.3677 l 0.15615,-0.97755 c 0.0854,-0.53525 0.16725,-1.011 0.1784,-1.05935 l 0.0185,-0.0817 h -8.33344 z m 9.70124,3.82845 v 4.89155 l 2.5387,-0.015 c 2.15214,-0.011 2.59444,-0.026 2.93639,-0.078 2.45695,-0.38655 3.8917,-1.70235 4.21135,-3.8545 0.0855,-0.57985 0.0557,-1.74695 -0.0557,-2.26735 -0.20445,-0.9441 -0.53895,-1.602 -1.10395,-2.167 -0.69135,-0.69135 -1.60945,-1.09275 -2.98845,-1.31205 -0.3271,-0.0485 -0.8177,-0.0632 -2.96239,-0.0743 l -2.5759,-0.0185 z m 4.95474,-2.66505 c 0.6393,0.1747 1.0928,0.53895 1.3604,1.0928 0.0818,0.17095 0.1747,0.41255 0.20815,0.53895 0.10035,0.3977 0.13755,0.98125 0.0929,1.45335 -0.0929,0.9924 -0.5018,1.70235 -1.16715,2.02945 -0.44975,0.2193 -0.62075,0.24905 -1.53509,0.27135 l -0.8289,0.0185 v -5.51595 l 0.7917,0.0185 c 0.64679,0.011 0.84004,0.0295 1.07794,0.093 z m 9.05825,-2.141 c -0.0185,0.0485 -0.79545,2.2488 -1.72095,4.89155 l -1.6875,4.80235 1.602,-0.007 1.5983,-0.011 0.223,-0.75455 0.21935,-0.75085 1.52765,0.007 1.52394,0.011 0.22675,0.7434 0.23045,0.7434 1.5983,0.011 1.602,0.007 -0.17095,-0.4944 c -0.0966,-0.2713 -0.8698,-2.47175 -1.71725,-4.8878 l -1.54255,-4.39344 h -3.47534 z m 2.22645,4.64625 0.43489,1.46075 -0.88834,0.011 c -0.49065,0.005 -0.8995,0.005 -0.90695,-0.007 -0.008,-0.007 0.17845,-0.64675 0.4163,-1.41985 0.2379,-0.77685 0.4386,-1.4385 0.44975,-1.47565 0.011,-0.037 0.03,-0.0595 0.041,-0.0485 0.011,0.007 0.2156,0.6765 0.45345,1.4794 z"
     id="path1-3"
     style="display:inline;fill:#3758a4;fill-opacity:1;stroke-width:0.0371604;stroke-dasharray:none" />
</svg>
